<svg version="1.1" xmlns="http://www.w3.org/2000/svg" viewBox="0 0 623 414" width="1246" height="828" filter="invert(93%) hue-rotate(180deg)">
  <!-- svg-source:excalidraw -->
  
  <defs>
    <style class="style-fonts">
      @font-face {
        font-family: "Virgil";
        src: url("https://excalidraw.com/Virgil.woff2");
      }
      @font-face {
        font-family: "Cascadia";
        src: url("https://excalidraw.com/Cascadia.woff2");
      }
      @font-face {
        font-family: "Assistant";
        src: url("https://excalidraw.com/Assistant-Regular.woff2");
      }
    </style>
    
  </defs>
  <g stroke-linecap="round" transform="translate(10 10) rotate(0 301.5 197)"><path d="M32 0 C236.81 1.41, 439.66 1.2, 571 0 M32 0 C144.6 -0.33, 257.29 0.18, 571 0 M571 0 C591.81 -0.48, 604.19 11.64, 603 32 M571 0 C591.7 -0.51, 600.83 11.29, 603 32 M603 32 C602.04 135.55, 599.53 236.03, 603 362 M603 32 C605.61 157.88, 605.01 283.22, 603 362 M603 362 C602.07 384.55, 591.77 394.74, 571 394 M603 362 C602.11 385.32, 594.28 393.32, 571 394 M571 394 C395.22 396.09, 218.96 396.43, 32 394 M571 394 C405.72 393.73, 240.99 393.34, 32 394 M32 394 C10.05 395.38, 1.22 382.38, 0 362 M32 394 C12.39 395.72, -1.59 381.26, 0 362 M0 362 C-2.12 251.38, -2.23 141.92, 0 32 M0 362 C-1.78 243.25, -1.41 122.97, 0 32 M0 32 C1.53 9.35, 10.05 1.24, 32 0 M0 32 C0.08 12.56, 11.68 -0.19, 32 0" stroke="#1e1e1e" stroke-width="2" fill="none"></path></g><g transform="translate(476 18) rotate(0 58.58333206176758 12)"><text x="0" y="19.3125" font-family="Cascadia, Segoe UI Emoji" font-size="20px" fill="#1e1e1e" text-anchor="start" style="white-space: pre;" direction="ltr" dominant-baseline="alphabetic">repository</text></g><g stroke-linecap="round" transform="translate(68.28868552002359 96.27803015318767) rotate(0 26.950856991066928 6.27879090409715)"><path d="M-0.08 -0.38 L54.02 0.58 L53.82 13.4 L-0.63 12.7" stroke="none" stroke-width="0" fill="#868e96"></path><path d="M0 0 C16.54 -0.74, 30.99 0.76, 53.9 0 M0 0 C15.69 0.63, 32.47 0.17, 53.9 0 M53.9 0 C54.31 3.43, 53.4 7.43, 53.9 12.56 M53.9 0 C53.85 4.75, 53.95 9.35, 53.9 12.56 M53.9 12.56 C35.73 11.79, 15.36 11.96, 0 12.56 M53.9 12.56 C40.37 12.44, 27.2 12.55, 0 12.56 M0 12.56 C0.43 8.31, 0.03 3.2, 0 0 M0 12.56 C-0.11 9.56, -0.14 6.25, 0 0" stroke="#000000" stroke-width="1" fill="none"></path></g><g stroke-linecap="round" transform="translate(68.28868552002359 76.10763671056401) rotate(0 26.758838855640306 6.27879090409715)"><path d="M0.12 0.58 L53.44 0.84 L52.89 12.7 L-0.28 12.49" stroke="none" stroke-width="0" fill="#868e96"></path><path d="M0 0 C18.98 1.1, 39.72 -0.14, 53.52 0 M0 0 C12.01 -0.27, 23.62 -0.56, 53.52 0 M53.52 0 C53.1 4.36, 53.99 8.46, 53.52 12.56 M53.52 0 C53.56 3.84, 53.67 7.5, 53.52 12.56 M53.52 12.56 C33.94 11.56, 14.9 12.01, 0 12.56 M53.52 12.56 C38.36 12.55, 23.47 12.07, 0 12.56 M0 12.56 C-0.06 9.6, -0.42 6.44, 0 0 M0 12.56 C-0.17 7.66, 0.01 3.22, 0 0" stroke="#000000" stroke-width="1" fill="none"></path></g><g stroke-linecap="round" transform="translate(68.00409443088608 55.9372432679404) rotate(0 26.691444255167085 5.736245544979994)"><path d="M-0.08 0.84 L52.75 0.14 L53.11 11.41 L0.59 11.75" stroke="none" stroke-width="0" fill="#868e96"></path><path d="M0 0 C13.07 -0.54, 25.36 -1.17, 53.38 0 M0 0 C20.43 -0.31, 41.13 0.38, 53.38 0 M53.38 0 C53.73 3.08, 53.33 6.01, 53.38 11.47 M53.38 0 C53.54 3.94, 53.55 8.07, 53.38 11.47 M53.38 11.47 C41.76 10.97, 31.03 10.93, 0 11.47 M53.38 11.47 C38.46 11.05, 22.5 11.79, 0 11.47 M0 11.47 C-0.34 6.88, 0.39 3.07, 0 0 M0 11.47 C0.01 7.88, 0.07 4.68, 0 0" stroke="#000000" stroke-width="1" fill="none"></path></g><g transform="translate(54.082473143363245 114.68035305178358) rotate(0 42.891666412353516 11.752443933294984)"><text x="0" y="16.47222541690627" font-family="Virgil, Segoe UI Emoji" font-size="18.803910293271997px" fill="#000000" text-anchor="start" style="white-space: pre;" direction="ltr" dominant-baseline="alphabetic">Packages</text></g><g stroke-linecap="round" transform="translate(43.638297872340445 43) rotate(0 52.18085106382978 54.06124209315698)"><path d="M26.09 0 C37.17 -1.47, 50.2 0.02, 78.27 0 M26.09 0 C42.62 -0.24, 59.68 -0.35, 78.27 0 M78.27 0 C93.74 0.96, 103.98 9.78, 104.36 26.09 M78.27 0 C95.98 -1.94, 104.79 7.45, 104.36 26.09 M104.36 26.09 C104.94 48.8, 102.91 68.75, 104.36 82.03 M104.36 26.09 C104.02 43.92, 103.9 60.68, 104.36 82.03 M104.36 82.03 C105.39 98.79, 97.35 106.66, 78.27 108.12 M104.36 82.03 C103.55 98.34, 93.55 107.14, 78.27 108.12 M78.27 108.12 C65.43 109.12, 49.31 107.64, 26.09 108.12 M78.27 108.12 C62.23 108.25, 48.67 107.65, 26.09 108.12 M26.09 108.12 C9.15 107.57, 0.86 98.44, 0 82.03 M26.09 108.12 C6.53 108.98, 2.01 100.13, 0 82.03 M0 82.03 C0.99 66.59, 1.62 51.65, 0 26.09 M0 82.03 C0.75 65.19, -1.01 50.37, 0 26.09 M0 26.09 C-1.99 7.09, 9.76 -0.34, 26.09 0 M0 26.09 C-2.27 6.85, 7.35 0.19, 26.09 0" stroke="#2f9e44" stroke-width="2" fill="none"></path></g><g transform="translate(40 156.2340425531915) rotate(0 54.34538800665672 13.914893617021278)"><text x="0" y="22.39428191489361" font-family="Cascadia, Segoe UI Emoji" font-size="23.191489361702125px" fill="#2f9e44" text-anchor="start" style="white-space: pre;" direction="ltr" dominant-baseline="alphabetic">module 1</text></g><g stroke-linecap="round" transform="translate(69.78868552002359 272.7461152595706) rotate(0 26.950856991066928 6.27879090409715)"><path d="M-0.25 -0.09 L54.73 -0.88 L53.97 11.64 L0 12.26" stroke="none" stroke-width="0" fill="#868e96"></path><path d="M0 0 C20.52 -0.67, 39.9 -0.59, 53.9 0 M0 0 C19.08 -0.15, 38.8 -0.37, 53.9 0 M53.9 0 C53.59 4.49, 54.11 8.02, 53.9 12.56 M53.9 0 C54.25 3.86, 53.77 7.47, 53.9 12.56 M53.9 12.56 C39.25 11.37, 25.08 12.41, 0 12.56 M53.9 12.56 C39.68 12.53, 25.61 12.63, 0 12.56 M0 12.56 C0.37 7.58, -0.19 3.4, 0 0 M0 12.56 C0.22 8.34, 0.22 3.73, 0 0" stroke="#000000" stroke-width="1" fill="none"></path></g><g stroke-linecap="round" transform="translate(69.78868552002359 252.57572181694695) rotate(0 26.758838855640306 6.27879090409715)"><path d="M0.83 -0.88 L53.59 -0.92 L53.52 12.26 L-0.32 11.73" stroke="none" stroke-width="0" fill="#868e96"></path><path d="M0 0 C16.59 -0.37, 35.18 0.02, 53.52 0 M0 0 C19.59 -0.2, 39.52 -0.06, 53.52 0 M53.52 0 C53.7 3.9, 53.5 8.1, 53.52 12.56 M53.52 0 C53.4 2.73, 53.48 5.53, 53.52 12.56 M53.52 12.56 C42.45 12.4, 30.59 12.44, 0 12.56 M53.52 12.56 C38.62 12.73, 24.58 12.31, 0 12.56 M0 12.56 C-0.26 8.85, 0.25 4.84, 0 0 M0 12.56 C0.17 9.32, -0.12 6.39, 0 0" stroke="#000000" stroke-width="1" fill="none"></path></g><g stroke-linecap="round" transform="translate(69.5040944308862 232.4053283743234) rotate(0 26.691444255167085 5.736245544979994)"><path d="M0.07 -0.92 L53.38 -0.3 L53.06 10.65 L-0.16 10.76" stroke="none" stroke-width="0" fill="#868e96"></path><path d="M0 0 C13.37 0, 26.19 -0.63, 53.38 0 M0 0 C16.46 0.06, 32.77 -0.14, 53.38 0 M53.38 0 C53.42 4.86, 52.99 9.36, 53.38 11.47 M53.38 0 C53.26 3.47, 53.09 7.28, 53.38 11.47 M53.38 11.47 C42.04 11.63, 31.23 11.08, 0 11.47 M53.38 11.47 C37.23 11.28, 20.41 11.82, 0 11.47 M0 11.47 C0.28 8.56, -0.3 6.24, 0 0 M0 11.47 C-0.11 7.59, 0.2 3.52, 0 0" stroke="#000000" stroke-width="1" fill="none"></path></g><g transform="translate(53.58247314336313 291.1484381581665) rotate(0 42.891666412353516 11.752443933295012)"><text x="0" y="16.47222541690627" font-family="Virgil, Segoe UI Emoji" font-size="18.803910293271997px" fill="#000000" text-anchor="start" style="white-space: pre;" direction="ltr" dominant-baseline="alphabetic">Packages</text></g><g stroke-linecap="round" transform="translate(45.138297872340445 219.468085106383) rotate(0 52.18085106382978 54.06124209315698)"><path d="M26.09 0 C41.12 -0.13, 55.14 0.71, 78.27 0 M26.09 0 C42.19 0.59, 56.77 0.28, 78.27 0 M78.27 0 C97.24 -1.44, 106.27 9.08, 104.36 26.09 M78.27 0 C94.35 -0.97, 103.65 7.21, 104.36 26.09 M104.36 26.09 C104.69 38.05, 103.48 49.91, 104.36 82.03 M104.36 26.09 C103.61 41.68, 104.81 56.15, 104.36 82.03 M104.36 82.03 C104.42 100.49, 94.55 107.42, 78.27 108.12 M104.36 82.03 C104.72 100.45, 95.24 106.85, 78.27 108.12 M78.27 108.12 C58.09 107.98, 39.91 110.13, 26.09 108.12 M78.27 108.12 C67.2 107.35, 55.79 106.82, 26.09 108.12 M26.09 108.12 C8.37 106.7, -1.89 99.06, 0 82.03 M26.09 108.12 C10.77 107.68, 0.23 99.36, 0 82.03 M0 82.03 C1.85 66.21, 0.9 51.86, 0 26.09 M0 82.03 C0.66 69.2, -0.91 55.86, 0 26.09 M0 26.09 C1.72 7.49, 6.86 -0.97, 26.09 0 M0 26.09 C1.35 8.68, 6.57 0.73, 26.09 0" stroke="#2f9e44" stroke-width="2" fill="none"></path></g><g transform="translate(40.5 334.70212765957444) rotate(0 54.46666717529297 13.914893617021278)"><text x="0" y="22.39428191489361" font-family="Cascadia, Segoe UI Emoji" font-size="23.191489361702125px" fill="#2f9e44" text-anchor="start" style="white-space: pre;" direction="ltr" dominant-baseline="alphabetic">module 2</text></g><g stroke-linecap="round" transform="translate(438.67836344291095 228.15190241170814) rotate(0 15.339689959299449 3.573715886661546)"><path d="M0.24 -0.89 L29.93 0.3 L31.5 6.47 L-0.95 7.52" stroke="none" stroke-width="0" fill="#868e96"></path><path d="M0 0 C8.16 0.56, 18.29 -0.33, 30.68 0 M0 0 C9.88 0.25, 19.65 0.4, 30.68 0 M30.68 0 C30.4 1.77, 30.62 3.18, 30.68 7.15 M30.68 0 C30.76 1.56, 30.77 3.37, 30.68 7.15 M30.68 7.15 C24.58 7.62, 18.24 6.25, 0 7.15 M30.68 7.15 C21.67 7.27, 12.26 7.22, 0 7.15 M0 7.15 C-0.32 5.12, -0.08 2.63, 0 0 M0 7.15 C-0.02 5.1, 0.03 2.97, 0 0" stroke="#000000" stroke-width="1" fill="none"></path></g><g stroke-linecap="round" transform="translate(438.67836344291095 216.67146667382093) rotate(0 15.230398493540747 3.573715886661546)"><path d="M-0.75 0.3 L31.28 -0.67 L29.51 7.52 L0.66 8.1" stroke="none" stroke-width="0" fill="#868e96"></path><path d="M0 0 C11.04 -0.34, 21.98 0.42, 30.46 0 M0 0 C6.66 0.24, 13.38 -0.14, 30.46 0 M30.46 0 C30.38 2.9, 30.22 5.32, 30.46 7.15 M30.46 0 C30.6 2.65, 30.33 5.3, 30.46 7.15 M30.46 7.15 C20.46 6.23, 9.3 6.55, 0 7.15 M30.46 7.15 C24.17 7.43, 17.65 7.46, 0 7.15 M0 7.15 C-0.03 5.06, -0.01 3.14, 0 0 M0 7.15 C0.01 4.26, 0.05 1.32, 0 0" stroke="#000000" stroke-width="1" fill="none"></path></g><g stroke-linecap="round" transform="translate(438.5163819862919 205.19103093593372) rotate(0 15.192039332029367 3.264913921645274)"><path d="M0.82 -0.67 L29.43 0.38 L31.05 7.48 L0.39 6.54" stroke="none" stroke-width="0" fill="#868e96"></path><path d="M0 0 C11.31 0.55, 21.4 -0.09, 30.38 0 M0 0 C9.54 -0.18, 20.39 -0.46, 30.38 0 M30.38 0 C30.19 2.13, 30.64 4.96, 30.38 6.53 M30.38 0 C30.26 1.22, 30.48 2.77, 30.38 6.53 M30.38 6.53 C20.09 5.73, 8.86 6.9, 0 6.53 M30.38 6.53 C19.67 6.83, 8.75 6.17, 0 6.53 M0 6.53 C-0.03 4.09, 0.32 2.12, 0 0 M0 6.53 C0.04 4.38, -0.12 2.57, 0 0" stroke="#000000" stroke-width="1" fill="none"></path></g><g stroke-linecap="round"><g transform="translate(123.90809875880973 60.962169676504175) rotate(0 154.16002282871352 37.477269695576354)"><path d="M0 0 C27.55 -0.11, 113.92 -13.22, 165.3 -0.62 C216.69 11.98, 284.48 62.87, 308.32 75.57" stroke="#1971c2" stroke-width="1.5" fill="none" stroke-dasharray="1.5 7"></path></g><g transform="translate(123.90809875880973 60.962169676504175) rotate(0 154.16002282871352 37.477269695576354)"><path d="M283.85 70.45 C291.64 72.08, 299.44 73.71, 308.32 75.57" stroke="#1971c2" stroke-width="1.5" fill="none" stroke-dasharray="1.5 5"></path></g><g transform="translate(123.90809875880973 60.962169676504175) rotate(0 154.16002282871352 37.477269695576354)"><path d="M292.87 55.92 C297.79 62.18, 302.71 68.44, 308.32 75.57" stroke="#1971c2" stroke-width="1.5" fill="none" stroke-dasharray="1.5 5"></path></g></g><mask></mask><g stroke-linecap="round" transform="translate(438.4596689574205 193.65037984879393) rotate(0 15.339689959299449 3.573715886661546)"><path d="M0.36 0.42 L29.71 0.95 L30.47 6.48 L-0.04 7.23" stroke="none" stroke-width="0" fill="#868e96"></path><path d="M0 0 C10.79 0.69, 23.46 0.56, 30.68 0 M0 0 C6.08 0.3, 12.8 -0.25, 30.68 0 M30.68 0 C30.77 2.36, 30.96 4.79, 30.68 7.15 M30.68 0 C30.61 2.24, 30.56 4.69, 30.68 7.15 M30.68 7.15 C20.18 6.42, 8.67 6.32, 0 7.15 M30.68 7.15 C18.33 6.8, 6.16 6.89, 0 7.15 M0 7.15 C-0.26 5.46, 0.32 3.86, 0 0 M0 7.15 C-0.01 4.61, 0.16 1.8, 0 0" stroke="#000000" stroke-width="1" fill="none"></path></g><g stroke-linecap="round" transform="translate(438.4596689574205 182.16994411090667) rotate(0 15.230398493540747 3.573715886661546)"><path d="M-0.97 0.95 L30.25 -0.66 L30.42 7.23 L0.4 6.57" stroke="none" stroke-width="0" fill="#868e96"></path><path d="M0 0 C11.44 0.52, 20.31 0.31, 30.46 0 M0 0 C8.35 -0.39, 16.07 0.02, 30.46 0 M30.46 0 C30.75 1.4, 30.53 3.06, 30.46 7.15 M30.46 0 C30.34 2.52, 30.56 4.7, 30.46 7.15 M30.46 7.15 C18.54 6.04, 7.35 7.95, 0 7.15 M30.46 7.15 C23.32 6.92, 16.16 6.99, 0 7.15 M0 7.15 C0.35 5.11, 0.28 2.88, 0 0 M0 7.15 C0.16 4.97, 0.07 2.99, 0 0" stroke="#000000" stroke-width="1" fill="none"></path></g><g stroke-linecap="round" transform="translate(438.2976875008012 170.68950837301952) rotate(0 15.192039332029367 3.264913921645274)"><path d="M-0.21 -0.66 L30.35 0.08 L30.79 5.95 L-0.3 6.2" stroke="none" stroke-width="0" fill="#868e96"></path><path d="M0 0 C10.45 0.33, 22.48 -0.31, 30.38 0 M0 0 C10.8 0.18, 20.72 0.22, 30.38 0 M30.38 0 C30.46 1.64, 30.5 3.36, 30.38 6.53 M30.38 0 C30.46 1.9, 30.52 3.88, 30.38 6.53 M30.38 6.53 C24.91 7.32, 16.78 6.05, 0 6.53 M30.38 6.53 C22.4 6.4, 15.05 6.11, 0 6.53 M0 6.53 C0.2 4.54, -0.04 2.58, 0 0 M0 6.53 C0.03 4.23, -0.19 1.95, 0 0" stroke="#000000" stroke-width="1" fill="none"></path></g><g stroke-linecap="round" transform="translate(438.4596689574205 158.6367982218115) rotate(0 15.339689959299449 3.573715886661546)"><path d="M0.57 -0.34 L30.31 -0.52 L30.17 6.87 L0.24 8.05" stroke="none" stroke-width="0" fill="#868e96"></path><path d="M0 0 C6.5 0.22, 14.23 0.75, 30.68 0 M0 0 C7.79 -0.12, 15.25 -0.26, 30.68 0 M30.68 0 C31.04 3.05, 30.39 5.75, 30.68 7.15 M30.68 0 C30.59 1.39, 30.63 2.84, 30.68 7.15 M30.68 7.15 C22.37 6.38, 14.12 8.01, 0 7.15 M30.68 7.15 C20.71 7.1, 11.09 7.58, 0 7.15 M0 7.15 C-0.36 5.58, -0.09 3.1, 0 0 M0 7.15 C-0.11 4.98, -0.06 2.79, 0 0" stroke="#000000" stroke-width="1" fill="none"></path></g><g stroke-linecap="round" transform="translate(438.4596689574205 147.15636248392423) rotate(0 15.230398493540747 3.573715886661546)"><path d="M-0.37 -0.52 L29.96 -0.28 L30.7 8.05 L0.75 6.3" stroke="none" stroke-width="0" fill="#868e96"></path><path d="M0 0 C9.33 0.74, 18.84 0.12, 30.46 0 M0 0 C8.16 -0.25, 16.92 0.35, 30.46 0 M30.46 0 C30.18 2.24, 30.15 4.74, 30.46 7.15 M30.46 0 C30.35 2.76, 30.38 5.52, 30.46 7.15 M30.46 7.15 C21.81 7.93, 13.4 7.74, 0 7.15 M30.46 7.15 C21.85 7.58, 12.45 7.32, 0 7.15 M0 7.15 C-0.04 4.46, 0.02 2.28, 0 0 M0 7.15 C-0.04 4.59, 0.12 2.22, 0 0" stroke="#000000" stroke-width="1" fill="none"></path></g><g stroke-linecap="round" transform="translate(438.2976875008012 135.67592674603708) rotate(0 15.192039332029367 3.264913921645274)"><path d="M-0.51 -0.28 L30.62 0.9 L31.13 5.68 L-0.94 5.96" stroke="none" stroke-width="0" fill="#868e96"></path><path d="M0 0 C9.35 0.04, 19.41 0.16, 30.38 0 M0 0 C8.59 0.4, 16.22 0.57, 30.38 0 M30.38 0 C30.04 2.64, 30.66 4.42, 30.38 6.53 M30.38 0 C30.32 1.64, 30.34 3.48, 30.38 6.53 M30.38 6.53 C23.78 7.37, 16.62 6.63, 0 6.53 M30.38 6.53 C21.32 6.84, 12.8 6.18, 0 6.53 M0 6.53 C-0.01 3.98, 0.14 1.18, 0 0 M0 6.53 C0.1 4.71, -0.05 2.92, 0 0" stroke="#000000" stroke-width="1" fill="none"></path></g><g transform="translate(397.7363706685685 250.15216831739838) rotate(0 59.296385054593316 16.266151896822578)"><text x="59.296385054593294" y="22.79863849858655" font-family="Virgil, Segoe UI Emoji" font-size="26.025843034916154px" fill="#1e1e1e" text-anchor="middle" style="white-space: pre;" direction="ltr" dominant-baseline="alphabetic">Packages</text></g><g stroke-linecap="round" transform="translate(367.22090587400817 120.87910546057014) rotate(0 90.08145912280247 86.545566003538)"><path d="M32 0 C72.34 -1.71, 114.28 0.75, 148.16 0 M32 0 C76.88 0.55, 121.36 0.05, 148.16 0 M148.16 0 C168.03 0.21, 182.12 12.57, 180.16 32 M148.16 0 C170.61 2.25, 179.79 8.47, 180.16 32 M180.16 32 C178.21 74.43, 179.28 112.68, 180.16 141.09 M180.16 32 C182.02 71.42, 180.95 111.51, 180.16 141.09 M180.16 141.09 C180.56 161.56, 171.01 172.68, 148.16 173.09 M180.16 141.09 C178.5 163.8, 168.32 172.35, 148.16 173.09 M148.16 173.09 C117.68 173.11, 91.25 173.65, 32 173.09 M148.16 173.09 C123.22 172.86, 99.22 173.49, 32 173.09 M32 173.09 C10.96 173.49, -0.36 162.48, 0 141.09 M32 173.09 C10.44 174.04, -1.48 161.89, 0 141.09 M0 141.09 C-1.73 114.5, -1.19 87.8, 0 32 M0 141.09 C0.36 107.74, 1.1 75.2, 0 32 M0 32 C-0.91 10.99, 10.99 -0.22, 32 0 M0 32 C0.94 12.23, 8.64 1.33, 32 0" stroke="#2f9e44" stroke-width="2" fill="none"></path></g><g transform="translate(348.4001551508966 303.0781796048159) rotate(0 111.30833435058594 12)"><text x="111.30833435058594" y="19.3125" font-family="Cascadia, Segoe UI Emoji" font-size="20px" fill="#2f9e44" text-anchor="middle" style="white-space: pre;" direction="ltr" dominant-baseline="alphabetic">individual packages</text></g><g stroke-linecap="round"><g transform="translate(123.28898220126484 81.43445200369388) rotate(0 156.63648905889352 40.55213451919968)"><path d="M0 0 C28.48 0.31, 118.66 -11.66, 170.88 1.86 C223.09 15.37, 289.54 67.9, 313.27 81.1" stroke="#1971c2" stroke-width="1.5" fill="none" stroke-dasharray="1.5 7"></path></g><g transform="translate(123.28898220126484 81.43445200369388) rotate(0 156.63648905889352 40.55213451919968)"><path d="M288.92 75.47 C295.02 76.88, 301.13 78.29, 313.27 81.1" stroke="#1971c2" stroke-width="1.5" fill="none" stroke-dasharray="1.5 5"></path></g><g transform="translate(123.28898220126484 81.43445200369388) rotate(0 156.63648905889352 40.55213451919968)"><path d="M298.24 61.13 C302.01 66.14, 305.78 71.15, 313.27 81.1" stroke="#1971c2" stroke-width="1.5" fill="none" stroke-dasharray="1.5 5"></path></g></g><mask></mask><g stroke-linecap="round"><g transform="translate(124.52721531635473 101.24618184513486) rotate(0 154.77913938625846 40.24257624042724)"><path d="M0 0 C26 -0.1, 104.42 -14.14, 156.02 -0.62 C207.61 12.9, 283.97 67.48, 309.56 81.1" stroke="#1971c2" stroke-width="1.5" fill="none" stroke-dasharray="1.5 7"></path></g><g transform="translate(124.52721531635473 101.24618184513486) rotate(0 154.77913938625846 40.24257624042724)"><path d="M285.04 76.2 C291.12 77.42, 297.2 78.63, 309.56 81.1" stroke="#1971c2" stroke-width="1.5" fill="none" stroke-dasharray="1.5 5"></path></g><g transform="translate(124.52721531635473 101.24618184513486) rotate(0 154.77913938625846 40.24257624042724)"><path d="M293.93 61.59 C297.8 66.43, 301.68 71.26, 309.56 81.1" stroke="#1971c2" stroke-width="1.5" fill="none" stroke-dasharray="1.5 5"></path></g></g><mask></mask><g stroke-linecap="round"><g transform="translate(122.05074908617473 239.3091741776774) rotate(0 155.7078142225759 -21.669079514076145)"><path d="M0 0 C26.11 -0.41, 104.73 4.75, 156.64 -2.48 C208.54 -9.7, 285.62 -36.53, 311.42 -43.34" stroke="#1971c2" stroke-width="1.5" fill="none" stroke-dasharray="1.5 7"></path></g><g transform="translate(122.05074908617473 239.3091741776774) rotate(0 155.7078142225759 -21.669079514076145)"><path d="M291.36 -28.42 C299.23 -34.27, 307.1 -40.12, 311.42 -43.34" stroke="#1971c2" stroke-width="1.5" fill="none" stroke-dasharray="1.5 5"></path></g><g transform="translate(122.05074908617473 239.3091741776774) rotate(0 155.7078142225759 -21.669079514076145)"><path d="M286.46 -44.8 C296.25 -44.23, 306.04 -43.65, 311.42 -43.34" stroke="#1971c2" stroke-width="1.5" fill="none" stroke-dasharray="1.5 5"></path></g></g><mask></mask><g stroke-linecap="round"><g transform="translate(123.90809875880973 259.1209040191185) rotate(0 155.08869766503096 -25.074220580573865)"><path d="M0 0 C27.34 -0.52, 112.37 5.26, 164.07 -3.1 C215.76 -11.45, 285.83 -42.31, 310.18 -50.15" stroke="#1971c2" stroke-width="1.5" fill="none" stroke-dasharray="1.5 7"></path></g><g transform="translate(123.90809875880973 259.1209040191185) rotate(0 155.08869766503096 -25.074220580573865)"><path d="M291.11 -33.97 C296.18 -38.27, 301.25 -42.58, 310.18 -50.15" stroke="#1971c2" stroke-width="1.5" fill="none" stroke-dasharray="1.5 5"></path></g><g transform="translate(123.90809875880973 259.1209040191185) rotate(0 155.08869766503096 -25.074220580573865)"><path d="M285.18 -50.01 C291.83 -50.05, 298.47 -50.08, 310.18 -50.15" stroke="#1971c2" stroke-width="1.5" fill="none" stroke-dasharray="1.5 5"></path></g></g><mask></mask><g stroke-linecap="round"><g transform="translate(124.52721531635484 278.9326338605596) rotate(0 155.08869766503096 -23.526429186711255)"><path d="M0 0 C26.83 -0.72, 109.27 3.51, 160.97 -4.33 C212.67 -12.18, 285.31 -39.93, 310.18 -47.05" stroke="#1971c2" stroke-width="1.5" fill="none" stroke-dasharray="1.5 7"></path></g><g transform="translate(124.52721531635484 278.9326338605596) rotate(0 155.08869766503096 -23.526429186711255)"><path d="M290.49 -31.65 C298.24 -37.71, 305.99 -43.78, 310.18 -47.05" stroke="#1971c2" stroke-width="1.5" fill="none" stroke-dasharray="1.5 5"></path></g><g transform="translate(124.52721531635484 278.9326338605596) rotate(0 155.08869766503096 -23.526429186711255)"><path d="M285.19 -47.91 C295.03 -47.57, 304.87 -47.23, 310.18 -47.05" stroke="#1971c2" stroke-width="1.5" fill="none" stroke-dasharray="1.5 5"></path></g></g><mask></mask><g transform="translate(218.81912555014787 159.44313825436814) rotate(0 46.86666488647461 12)"><text x="46.86666488647461" y="19.3125" font-family="Cascadia, Segoe UI Emoji" font-size="20px" fill="#1971c2" text-anchor="middle" style="white-space: pre;" direction="ltr" dominant-baseline="alphabetic">symlinks</text></g></svg>